<svg version="1.1" id="Layer_1" xmlns="http://www.w3.org/2000/svg" xmlns:xlink="http://www.w3.org/1999/xlink" x="0px" y="0px" viewBox="0 0 38 35.8" enable-background="new 0 0 38 35.8" xml:space="preserve">
	<style>
		*{
			fill:#b99458;
		}
	</style>
		<g>
			<path fill="none" d="M7.6,9.1C7.2,8.7,6.5,8.8,6.2,9.3l-6,8c-0.3,0.4-0.3,0.8,0,1.2l6,8c0.2,0.3,0.5,0.4,0.8,0.4
			c0.2,0,0.4-0.1,0.6-0.2c0.4-0.3,0.5-1,0.2-1.4l-5.5-7.4l5.5-7.4C8.1,10,8,9.4,7.6,9.1z"></path>
			<path fill="none" d="M37.8,17.3l-6-8c-0.3-0.4-1-0.5-1.4-0.2c-0.4,0.3-0.5,1-0.2,1.4l5.5,7.4l-5.5,7.4c-0.3,0.4-0.2,1.1,0.2,1.4
			c0.2,0.1,0.4,0.2,0.6,0.2c0.3,0,0.6-0.1,0.8-0.4l6-8C38.1,18.1,38.1,17.6,37.8,17.3z"></path>
		<path fill="none" d="M24.7,0L9,20.9h6.8l-2.5,14.9L29,14.9h-6.8L24.7,0z M25,16.9L16.7,28l1.5-9.1H13l8.3-11.1l-1.5,9.1H25z"></path>
	</g>
</svg>