<svg version="1.1" xmlns="http://www.w3.org/2000/svg" xmlns:xlink="http://www.w3.org/1999/xlink" x="0px" y="0px" viewBox="0 0 39 38.5" enable-background="new 0 0 39 38.5" xml:space="preserve">
	<style>
		*{
			fill:#b99458;
		}
	</style>
									<path fill="none" d="M36.4,18C35.8,10.6,30.3,4.4,23,2.9V0h-7v2.9C8.7,4.4,3.2,10.6,2.6,18H0v7h7v-7H4.6C5.2,11.7,9.8,6.4,16,4.9V7
										h2.4c-0.9,6.3-7.3,9.6-7.3,9.6l-1,0.5l0.6,0.9c0,0.1,3.4,5.2,3.8,10.4h-4v6h4.4l2,4h5.2l2-4h4.4v-6h-4c0.4-5.3,3.8-10.4,3.8-10.4
										l0.6-0.9l-1-0.5c-0.1,0-6.4-3.3-7.3-9.6H23V4.9c6.2,1.5,10.8,6.7,11.4,13.1H32v7h7v-7H36.4z M5,23H2v-3h3V23z M26.5,32.5h-3.6l-2,4
										h-2.8l-2-4h-3.6v-2h14V32.5z M26.1,17.9c-1.1,1.8-3.3,6.1-3.6,10.6h-6.1c-0.3-4.5-2.5-8.8-3.6-10.6c1.4-0.8,3.8-2.7,5.6-5.5V21h2
									v-8.6C22.3,15.2,24.8,17,26.1,17.9z M21,5h-3V2h3V5z M37,23h-3v-3h3V23z"></path>
								</svg>