<svg width="78.711" height="29.727" version="1.1" viewBox="0 0 20.8256 7.8651601" xmlns="http://www.w3.org/2000/svg">
 <g transform="translate(-3.1877 -285.5)">
  <g aria-label="UTD ">
   <path d="m3.1877 285.5h1.049v4.6871q0 1.2402 0.44958 1.788 0.44958 0.5426 1.4573 0.5426 1.0025 0 1.4521-0.5426 0.44958-0.54777 0.44958-1.788v-4.6871h1.049v4.8162q0 1.509-0.74931 2.2789-0.74414 0.76998-2.2014 0.76998-1.4624 0-2.2118-0.76998-0.74414-0.76998-0.74414-2.2789z" style="stroke-width:.26458"/>
   <path d="m9.9883 285.5h6.5267v0.8785h-2.7389v6.8368h-1.049v-6.8368h-2.7389z" style="stroke-width:.26458"/>
   <path d="m18.572 286.36v5.9996h1.2609q1.5968 0 2.3358-0.72347 0.74414-0.72347 0.74414-2.2841 0-1.5503-0.74414-2.2686-0.73897-0.72347-2.3358-0.72347zm-1.0439-0.85783h2.1446q2.2428 0 3.2918 0.93535 1.049 0.93017 1.049 2.9146 0 1.9947-1.0542 2.93-1.0542 0.93535-3.2866 0.93535h-2.1446z" style="stroke-width:.26458"/>
  </g>
 </g>
</svg>
