<svg width="78.711" height="29.727" version="1.1" viewBox="0 0 20.8256 7.8651601" xmlns="http://www.w3.org/2000/svg">
 <g transform="translate(-3.1877 -285.5)">
  <g aria-label="UTD ">
   <path d="m3.1877 285.5h1.049v4.6871c0.14986 0.596 0.29972 1.192 0.44958 1.788 0.48576 0.18087 0.97152 0.36173 1.4573 0.5426 0.48404-0.18087 0.96807-0.36173 1.4521-0.5426 0.14986-0.596 0.29972-1.192 0.44958-1.788v-4.6871h1.049v3.522 1.2942c-0.24977 0.75964-0.49954 1.5193-0.74931 2.2789-0.73381 0.25666-1.4676 0.51332-2.2014 0.76998l-2.2118-0.76998c-0.24805-0.75964-0.49609-1.5193-0.74414-2.2789v-4.8162z" style="stroke-width:.26458"/>
   <path d="m9.9883 285.5h6.5267v0.8785h-2.7389v6.8368h-1.049v-6.8368h-2.7389v-0.8785z" style="stroke-width:.26458"/>
   <path d="m18.572 286.36v5.9996h1.2609c0.77859-0.24116 1.5572-0.48231 2.3358-0.72347 0.24805-0.76137 0.49609-1.5227 0.74414-2.2841l-0.74414-2.2686c-0.77859-0.24116-1.5572-0.48231-2.3358-0.72347h-1.2609zm-1.0439-0.85783h2.1446c1.0973 0.31178 2.1945 0.62357 3.2918 0.93535 0.34968 0.97152 0.69935 1.943 1.049 2.9146-0.3514 0.97668-0.7028 1.9534-1.0542 2.93-1.0955 0.31178-2.1911 0.62357-3.2866 0.93535h-2.1446v-7.7153z" style="stroke-width:.26458"/>
  </g>
 </g>
</svg>
